<svg width="90" height="32" viewBox="0 0 90 32" fill="none" xmlns="http://www.w3.org/2000/svg">
<path d="M90 24.7736C90 26.4304 88.6569 27.7736 87 27.7736L48.8571 27.7736L45.7386 31.1906C45.3421 31.6252 44.6579 31.6252 44.2614 31.1906L41.1429 27.7736L2.99999 27.7736C1.34314 27.7736 -9.76509e-06 26.4304 -9.62025e-06 24.7736L-7.71674e-06 3C-7.57189e-06 1.34315 1.34314 -2.86305e-06 2.99999 -2.7182e-06L87 4.62531e-06C88.6569 4.77016e-06 90 1.34315 90 3L90 24.7736Z" fill="#383838"/>
<path d="M34.818 16.096C34.306 16.096 33.866 15.976 33.498 15.736C33.1353 15.4907 32.882 15.1547 32.738 14.728L33.218 14.448C33.3193 14.7947 33.506 15.0667 33.778 15.264C34.05 15.456 34.3993 15.552 34.826 15.552C35.242 15.552 35.5646 15.4613 35.794 15.28C36.0286 15.0933 36.146 14.848 36.146 14.544C36.146 14.2507 36.0393 14.0293 35.826 13.88C35.6126 13.7307 35.2606 13.576 34.77 13.416C34.1886 13.224 33.8046 13.0693 33.618 12.952C33.1913 12.696 32.978 12.3253 32.978 11.84C32.978 11.3653 33.1433 10.992 33.474 10.72C33.8046 10.4427 34.2126 10.304 34.698 10.304C35.1353 10.304 35.514 10.4187 35.834 10.648C36.154 10.872 36.3913 11.16 36.546 11.512L36.074 11.776C35.818 11.1573 35.3593 10.848 34.698 10.848C34.3513 10.848 34.0713 10.9333 33.858 11.104C33.6446 11.2747 33.538 11.512 33.538 11.816C33.538 12.0933 33.634 12.3013 33.826 12.44C34.018 12.5787 34.3353 12.72 34.778 12.864C34.9806 12.9333 35.1246 12.984 35.21 13.016C35.3006 13.0427 35.4286 13.0907 35.594 13.16C35.7646 13.224 35.89 13.2827 35.97 13.336C36.05 13.384 36.146 13.4533 36.258 13.544C36.3753 13.6293 36.458 13.7173 36.506 13.808C36.5593 13.8933 36.6046 14 36.642 14.128C36.6846 14.2507 36.706 14.384 36.706 14.528C36.706 15.0027 36.5326 15.384 36.186 15.672C35.8393 15.9547 35.3833 16.096 34.818 16.096ZM41.0683 16L39.7563 13.76L38.1883 13.76L38.1883 16L37.6283 16L37.6283 10.4L39.8683 10.4C40.3323 10.4 40.7269 10.5653 41.0523 10.896C41.3829 11.2213 41.5483 11.616 41.5483 12.08C41.5483 12.4587 41.4336 12.7973 41.2043 13.096C40.9803 13.3893 40.6923 13.5867 40.3403 13.688L41.7083 16L41.0683 16ZM38.1883 10.928L38.1883 13.232L39.8683 13.232C40.1776 13.232 40.4416 13.12 40.6603 12.896C40.8789 12.6667 40.9883 12.3947 40.9883 12.08C40.9883 11.76 40.8789 11.488 40.6603 11.264C40.4416 11.04 40.1776 10.928 39.8683 10.928L38.1883 10.928ZM48.0311 10.4L48.0311 10.928L46.3111 10.928L46.3111 16L45.7511 16L45.7511 10.928L44.0311 10.928L44.0311 10.4L48.0311 10.4ZM53.1431 15.256C52.5831 15.816 51.8978 16.096 51.0871 16.096C50.2764 16.096 49.5911 15.816 49.0311 15.256C48.4711 14.6907 48.1911 14.0053 48.1911 13.2C48.1911 12.3947 48.4711 11.712 49.0311 11.152C49.5911 10.5867 50.2764 10.304 51.0871 10.304C51.8978 10.304 52.5831 10.5867 53.1431 11.152C53.7031 11.712 53.9831 12.3947 53.9831 13.2C53.9831 14.0053 53.7031 14.6907 53.1431 15.256ZM49.4231 14.872C49.8711 15.3253 50.4258 15.552 51.0871 15.552C51.7484 15.552 52.3031 15.3253 52.7511 14.872C53.1991 14.4133 53.4231 13.856 53.4231 13.2C53.4231 12.544 53.1991 11.9893 52.7511 11.536C52.3031 11.0773 51.7484 10.848 51.0871 10.848C50.4258 10.848 49.8711 11.0773 49.4231 11.536C48.9751 11.9893 48.7511 12.544 48.7511 13.2C48.7511 13.856 48.9751 14.4133 49.4231 14.872ZM58.9408 10.4L58.9408 16L58.3808 16L58.3808 10.928L55.5008 10.928L55.5008 16L54.9408 16L54.9408 10.4L58.9408 10.4Z" fill="white"/>
</svg>
